Coordinates
version=1
nRows=43
nColumns=12
inDegrees=yes

Units are S.I. units (second, meters, Newtons, ...)
Angles are in degrees

endheader
time	SC_y	SC_z	SC_x	AC_y	AC_z	AC_x	GH_y	GH_z	GH_yy	EL_x	PS_y
       0.0              -22.07          31.31          49.27          64.12         -1.536         -6.598         -60.05          13.82         -175.0           76.0          68.97
    0.0147              -22.07          31.31          49.28          64.12         -1.539         -6.596         -60.03          13.83         -175.0          76.01          68.98
    0.0294              -22.08          31.31          49.28          64.12         -1.541         -6.595         -60.01          13.83         -175.0          76.01          68.98
    0.0441              -22.08          31.31          49.28          64.12         -1.544         -6.593         -59.99          13.84         -174.9          76.02          68.99
   0.05879              -22.09          31.31          49.28          64.12         -1.547          -6.59         -59.97          13.85         -174.9          76.02           69.0
   0.07349              -22.09          31.31          49.28          64.11         -1.551         -6.588         -59.95          13.86         -174.8          76.03           69.0
   0.08819               -22.1          31.31          49.29          64.11         -1.554         -6.586         -59.92          13.87         -174.8          76.04          69.01
    0.1029               -22.1          31.31          49.29          64.11         -1.558         -6.583         -59.89          13.88         -174.7          76.05          69.02
    0.1176              -22.11          31.31          49.29          64.11         -1.562          -6.58         -59.87          13.89         -174.7          76.05          69.03
    0.1323              -22.11          31.31           49.3           64.1         -1.567         -6.577         -59.83          13.91         -174.6          76.06          69.04
     0.147              -22.12          31.31           49.3           64.1         -1.571         -6.574          -59.8          13.92         -174.5          76.07          69.05
    0.1617              -22.12          31.31           49.3           64.1         -1.577         -6.571         -59.76          13.93         -174.5          76.08          69.06
    0.1764              -22.13          31.31          49.31          64.09         -1.582         -6.567         -59.73          13.95         -174.4          76.09          69.07
    0.1911              -22.14          31.31          49.31          64.09         -1.588         -6.563         -59.68          13.97         -174.3           76.1          69.08
    0.2058              -22.15          31.31          49.32          64.09         -1.594         -6.559         -59.64          13.99         -174.2          76.12           69.1
    0.2205              -22.16          31.31          49.32          64.08         -1.601         -6.554         -59.59          14.01         -174.1          76.13          69.11
    0.2352              -22.17          31.31          49.33          64.08         -1.609         -6.549         -59.54          14.03         -174.0          76.15          69.13
    0.2499              -22.18          31.31          49.33          64.07         -1.617         -6.544         -59.48          14.05         -173.9          76.16          69.15
    0.2646              -22.19          31.31          49.34          64.07         -1.626         -6.538         -59.41          14.08         -173.7          76.18          69.17
    0.2793               -22.2          31.31          49.34          64.06         -1.636         -6.531         -59.35           14.1         -173.6           76.2          69.19
     0.294              -22.22          31.31          49.35          64.05         -1.647         -6.524         -59.27          14.14         -173.4          76.22          69.21
    0.3087              -22.23          31.31          49.36          64.05         -1.659         -6.516         -59.18          14.17         -173.3          76.24          69.24
    0.3234              -22.25          31.31          49.37          64.04         -1.672         -6.507         -59.09          14.21         -173.1          76.27          69.27
    0.3381              -22.27          31.31          49.38          64.03         -1.687         -6.497         -58.99          14.25         -172.9           76.3           69.3
    0.3528              -22.29          31.31          49.39          64.02         -1.703         -6.486         -58.87          14.29         -172.6          76.33          69.33
    0.3675              -22.31          31.31           49.4          64.01         -1.721         -6.474         -58.75          14.35         -172.4          76.37          69.37
    0.3822              -22.34          31.31          49.42           64.0         -1.741         -6.461          -58.6           14.4         -172.1          76.41          69.42
    0.3969              -22.37          31.31          49.44          63.98         -1.764         -6.445         -58.44          14.47         -171.7          76.45          69.47
    0.4116               -22.4          31.31          49.45          63.96          -1.79         -6.428         -58.26          14.54         -171.4           76.5          69.52
    0.4263              -22.44          31.31          49.47          63.95         -1.819         -6.408         -58.06          14.63         -171.0          76.56          69.59
     0.441              -22.49          31.31           49.5          63.93         -1.852         -6.386         -57.82          14.72         -170.5          76.62          69.66
    0.4557              -22.54          31.31          49.53           63.9         -1.891          -6.36         -57.55          14.83         -169.9           76.7          69.74
    0.4704               -22.6          31.31          49.56          63.87         -1.935         -6.331         -57.24          14.96         -169.3          76.79          69.84
    0.4851              -22.66          31.31          49.59          63.84         -1.986         -6.296         -56.88           15.1         -168.5          76.89          69.95
    0.4998              -22.74          31.31          49.64          63.81         -2.046         -6.256         -56.45          15.28         -167.7          77.01          70.08
    0.5145              -22.84          31.31          49.69          63.76         -2.117         -6.208         -55.95          15.48         -166.6          77.14          70.23
    0.5292              -22.95          31.31          49.75          63.71         -2.201         -6.152         -55.36          15.72         -165.4          77.31          70.42
    0.5439              -23.08          31.31          49.82          63.65         -2.302         -6.084         -54.65          16.01         -164.0          77.51          70.64
    0.5585              -23.24          31.31           49.9          63.57         -2.424         -6.002         -53.78          16.36         -162.2          77.75           70.9
    0.5732              -23.44          31.31          50.01          63.48         -2.574         -5.902         -52.73          16.78         -160.0          78.04          71.23
    0.5879              -23.68          31.31          50.14          63.36         -2.758         -5.779         -51.43          17.31         -157.4           78.4          71.63
    0.6026              -23.98          31.31           50.3          63.22         -2.987         -5.625         -49.81          17.97         -154.0          78.86          72.12
    0.6173              -24.36          31.31          50.51          63.04         -3.277         -5.431         -47.77          18.79         -149.9          79.43          72.75
